<svg xmlns="http://www.w3.org/2000/svg" width="506" height="145" viewBox="0 0 506 145"><rect width="100%" height="100%" fill="#DDDDDD"/><path fill="#999999" d="m116.425 55.78-1.71 10.09q1.61-.34 3.08-.49 1.48-.15 2.85-.15 3.82 0 6.73 1.14 2.92 1.14 4.89 3.15 1.98 2.01 2.99 4.7 1 2.7 1 5.82 0 3.85-1.36 7.03-1.35 3.18-3.77 5.45-2.41 2.26-5.71 3.5-3.3 1.24-7.18 1.24-2.28 0-4.32-.47-2.05-.47-3.84-1.26t-3.32-1.81q-1.52-1.02-2.73-2.16l2.55-3.52q.8-1.14 2.11-1.14.84 0 1.71.54t1.99 1.17q1.12.64 2.65 1.18 1.52.53 3.67.53 2.27 0 4.02-.74 1.74-.73 2.89-2.06 1.16-1.32 1.75-3.14.58-1.83.58-3.97 0-3.96-2.29-6.19-2.3-2.22-6.79-2.22-3.45 0-7.06 1.27l-5.16-1.47 4.02-23.52h23.92v3.52q0 1.77-1.11 2.88-1.11 1.1-3.75 1.1h-13.3Zm60.73 16.72q0 6.33-1.35 11-1.36 4.68-3.75 7.73-2.4 3.04-5.67 4.54-3.26 1.49-7.05 1.49-3.78 0-7.02-1.49-3.23-1.5-5.61-4.54-2.38-3.05-3.72-7.73-1.34-4.67-1.34-11 0-6.37 1.34-11.02 1.34-4.66 3.72-7.71t5.61-4.54q3.24-1.49 7.02-1.49 3.79 0 7.05 1.49 3.27 1.49 5.67 4.54 2.39 3.05 3.75 7.71 1.35 4.65 1.35 11.02Zm-8.54 0q0-5.26-.77-8.71-.77-3.45-2.06-5.49-1.29-2.05-2.96-2.87-1.68-.82-3.49-.82-1.77 0-3.43.82-1.66.82-2.93 2.87-1.28 2.04-2.03 5.49-.75 3.45-.75 8.71 0 5.26.75 8.71.75 3.45 2.03 5.49 1.27 2.05 2.93 2.87 1.66.82 3.43.82 1.81 0 3.49-.82 1.67-.82 2.96-2.87 1.29-2.04 2.06-5.49t.77-8.71Zm42.08-24.22-14.37 17.59-1.68 2.07q1.41-.7 3.03-1.09 1.63-.38 3.5-.38 2.75 0 5.35.9 2.59.91 4.57 2.73 1.98 1.83 3.18 4.54 1.21 2.72 1.21 6.33 0 3.39-1.24 6.35-1.24 2.97-3.49 5.18-2.24 2.21-5.41 3.48-3.16 1.28-6.98 1.28-3.89 0-6.97-1.24-3.08-1.24-5.26-3.47-2.18-2.23-3.33-5.36-1.16-3.13-1.16-6.95 0-3.42 1.39-7.02 1.39-3.6 4.31-7.49l11.56-15.51q.6-.8 1.75-1.37 1.16-.57 2.67-.57h7.37Zm-12.5 42.21q1.98 0 3.64-.67 1.65-.67 2.84-1.88 1.19-1.2 1.86-2.83.67-1.62.67-3.53 0-2.08-.63-3.74-.64-1.66-1.81-2.81-1.17-1.16-2.82-1.76-1.64-.6-3.61-.6-1.98 0-3.59.67-1.61.67-2.75 1.86-1.13 1.19-1.77 2.81-.64 1.62-.64 3.5 0 2.01.56 3.67.55 1.66 1.64 2.83 1.09 1.17 2.69 1.83 1.61.65 3.72.65Zm71.02-4.86-4.39 4.32-11.35-11.35-11.46 11.42-4.39-4.32 11.46-11.49-10.92-10.92 4.35-4.36 10.92 10.92L264.295 59l4.42 4.35-10.89 10.89 11.39 11.39Zm45.86 4.89h8.71v6.2h-26.8v-6.2h9.82V62.28q0-1.67.1-3.45l-6.97 5.83q-.6.47-1.19.59-.58.11-1.1.01-.52-.1-.92-.35-.41-.25-.61-.55l-2.61-3.59 14.77-12.56h6.8v42.31Zm22.01-12.06h14.74V62.62q0-2.25.3-4.96l-15.04 20.8Zm21.95 0h6.09v4.79q0 .67-.43 1.16-.44.48-1.24.48h-4.42v11.83h-7.21V84.89h-20.43q-.84 0-1.48-.51-.63-.52-.8-1.29l-.87-4.19 22.95-30.65h7.84v30.21Zm23.11-22.68-1.71 10.09q1.61-.34 3.08-.49 1.48-.15 2.85-.15 3.82 0 6.73 1.14 2.92 1.14 4.9 3.15 1.97 2.01 2.98 4.7 1 2.7 1 5.82 0 3.85-1.35 7.03-1.36 3.18-3.77 5.45-2.42 2.26-5.71 3.5-3.3 1.24-7.19 1.24-2.28 0-4.32-.47-2.05-.47-3.84-1.26t-3.31-1.81q-1.53-1.02-2.73-2.16l2.54-3.52q.81-1.14 2.11-1.14.84 0 1.71.54t1.99 1.17q1.13.64 2.65 1.18 1.52.53 3.67.53 2.28 0 4.02-.74 1.74-.73 2.9-2.06 1.15-1.32 1.74-3.14.58-1.83.58-3.97 0-3.96-2.29-6.19-2.3-2.22-6.78-2.22-3.45 0-7.07 1.27l-5.16-1.47 4.02-23.52h23.92v3.52q0 1.77-1.11 2.88-1.1 1.1-3.75 1.1h-13.3Z"/></svg>