<svg xmlns="http://www.w3.org/2000/svg" width="130" height="70" viewBox="0 0 130 70"><rect width="100%" height="100%" fill="#DDDDDD"/><path fill="#999999" d="M32.685 40.38h2.6v1.85h-8v-1.85h2.93v-8.43q0-.5.03-1.03l-2.08 1.74q-.18.14-.35.18-.18.03-.33 0-.16-.03-.28-.11-.12-.07-.18-.16l-.78-1.07 4.41-3.75h2.03v12.63Zm6.23-8.35-1.3-.23q.15-1.04.58-1.83.43-.78 1.08-1.3.64-.53 1.48-.8.83-.26 1.79-.26 1 0 1.81.28.8.29 1.37.8.57.5.88 1.18.3.68.3 1.47 0 .69-.15 1.21-.16.53-.45.92-.29.39-.72.66t-.97.45q1.3.41 1.94 1.25.64.84.64 2.11 0 1.08-.4 1.91-.4.83-1.08 1.4-.68.56-1.57.85-.9.29-1.9.29-1.09 0-1.9-.25-.81-.25-1.41-.74-.6-.49-1.02-1.2-.42-.71-.72-1.64l1.09-.45q.43-.18.81-.09.37.08.54.4.18.35.4.69.21.34.51.6.3.27.71.44.4.16.96.16.63 0 1.1-.21.47-.2.79-.53.31-.33.47-.74.15-.4.15-.81 0-.52-.11-.95-.11-.42-.46-.72-.35-.3-1-.47-.66-.17-1.76-.17v-1.76q.91-.01 1.51-.17t.96-.44q.35-.29.49-.69.14-.4.14-.88 0-1.02-.57-1.55t-1.52-.53q-.44 0-.81.12-.37.13-.66.36-.3.22-.5.52-.2.3-.3.66-.17.46-.44.61-.28.15-.78.07ZM59.235 35q0 1.89-.4 3.28-.41 1.4-1.12 2.31-.72.91-1.69 1.35-.98.45-2.11.45t-2.09-.45q-.97-.44-1.68-1.35-.71-.91-1.11-2.31-.4-1.39-.4-3.28 0-1.9.4-3.29.4-1.39 1.11-2.3.71-.91 1.68-1.36.96-.44 2.09-.44t2.11.44q.97.45 1.69 1.36.71.91 1.12 2.3.4 1.39.4 3.29Zm-2.55 0q0-1.57-.23-2.6t-.61-1.64q-.39-.61-.89-.86-.5-.24-1.04-.24-.53 0-1.02.24-.5.25-.88.86t-.6 1.64q-.23 1.03-.23 2.6t.23 2.6q.22 1.03.6 1.64.38.61.88.85.49.25 1.02.25.54 0 1.04-.25.5-.24.89-.85.38-.61.61-1.64.23-1.03.23-2.6Zm18.43 3.92-1.31 1.29-3.39-3.39-3.42 3.41-1.31-1.29 3.42-3.43-3.26-3.26 1.3-1.3 3.26 3.26 3.24-3.24 1.32 1.3-3.25 3.25 3.4 3.4Zm6.87-11.15h9.99v1.07q0 .48-.1.77-.1.3-.2.5l-5.48 11.28q-.17.35-.48.6-.31.24-.83.24h-1.79l5.59-11.05q.19-.34.38-.63.18-.28.41-.54h-6.92q-.23 0-.4-.17t-.17-.4v-1.67Zm21.77 7.23q0 1.89-.4 3.28-.41 1.4-1.12 2.31-.72.91-1.69 1.35-.98.45-2.11.45t-2.09-.45q-.97-.44-1.68-1.35-.71-.91-1.11-2.31-.4-1.39-.4-3.28 0-1.9.4-3.29.4-1.39 1.11-2.3.71-.91 1.68-1.36.96-.44 2.09-.44t2.11.44q.97.45 1.69 1.36.71.91 1.12 2.3.4 1.39.4 3.29Zm-2.55 0q0-1.57-.23-2.6t-.61-1.64q-.39-.61-.89-.86-.5-.24-1.04-.24-.53 0-1.02.24-.5.25-.88.86t-.6 1.64q-.23 1.03-.23 2.6t.23 2.6q.22 1.03.6 1.64.38.61.88.85.49.25 1.02.25.54 0 1.04-.25.5-.24.89-.85.38-.61.61-1.64.23-1.03.23-2.6Z"/></svg>