<svg xmlns="http://www.w3.org/2000/svg" width="700" height="800" viewBox="0 0 700 800"><rect width="100%" height="100%" fill="#DDDDDD"/><path fill="#999999" d="M141.94 366.38h46.45v4.98q0 2.23-.47 3.6-.46 1.37-.93 2.3l-25.48 52.45q-.79 1.63-2.23 2.77-1.44 1.14-3.86 1.14h-8.32l25.99-51.38q.88-1.58 1.74-2.91.86-1.32 1.93-2.53h-32.17q-1.07 0-1.86-.79t-.79-1.86v-7.77ZM243.17 400q0 8.79-1.89 15.28-1.88 6.48-5.21 10.71-3.32 4.24-7.85 6.3-4.54 2.07-9.79 2.07-5.26 0-9.74-2.07-4.49-2.06-7.79-6.3-3.3-4.23-5.16-10.71-1.86-6.49-1.86-15.28 0-8.83 1.86-15.3 1.86-6.46 5.16-10.69 3.3-4.23 7.79-6.3 4.48-2.07 9.74-2.07 5.25 0 9.79 2.07 4.53 2.07 7.85 6.3 3.33 4.23 5.21 10.69 1.89 6.47 1.89 15.3Zm-11.86 0q0-7.3-1.07-12.09t-2.86-7.63q-1.79-2.83-4.12-3.97-2.32-1.14-4.83-1.14-2.47 0-4.77 1.14-2.3 1.14-4.07 3.97-1.76 2.84-2.81 7.63T205.73 400q0 7.3 1.05 12.09t2.81 7.63q1.77 2.83 4.07 3.97 2.3 1.14 4.77 1.14 2.51 0 4.83-1.14 2.33-1.14 4.12-3.97 1.79-2.84 2.86-7.63 1.07-4.79 1.07-12.09Zm65.8 0q0 8.79-1.89 15.28-1.88 6.48-5.21 10.71-3.32 4.24-7.85 6.3-4.54 2.07-9.79 2.07-5.26 0-9.74-2.07-4.49-2.06-7.79-6.3-3.3-4.23-5.16-10.71-1.86-6.49-1.86-15.28 0-8.83 1.86-15.3 1.86-6.46 5.16-10.69 3.3-4.23 7.79-6.3 4.48-2.07 9.74-2.07 5.25 0 9.79 2.07 4.53 2.07 7.85 6.3 3.33 4.23 5.21 10.69 1.89 6.47 1.89 15.3Zm-11.86 0q0-7.3-1.07-12.09t-2.86-7.63q-1.79-2.83-4.12-3.97-2.32-1.14-4.83-1.14-2.47 0-4.77 1.14-2.3 1.14-4.07 3.97-1.76 2.84-2.81 7.63T259.67 400q0 7.3 1.05 12.09t2.81 7.63q1.77 2.83 4.07 3.97 2.3 1.14 4.77 1.14 2.51 0 4.83-1.14 2.33-1.14 4.12-3.97 1.79-2.84 2.86-7.63 1.07-4.79 1.07-12.09Zm85.7 18.23-6.09 6-15.77-15.77-15.9 15.86-6.09-6 15.9-15.95-15.16-15.16 6.05-6.04 15.16 15.16 15.06-15.07 6.14 6.05-15.11 15.11 15.81 15.81Zm54.59 7.16q2.84 0 4.97-.81 2.14-.82 3.61-2.26 1.46-1.44 2.21-3.44.74-2 .74-4.33 0-5.53-3.07-8.36-3.07-2.84-8.46-2.84-5.39 0-8.46 2.84-3.07 2.83-3.07 8.36 0 2.33.74 4.33.75 2 2.21 3.44t3.6 2.26q2.14.81 4.98.81Zm0-51.1q-2.56 0-4.42.79-1.86.79-3.09 2.11-1.23 1.33-1.81 3.05-.59 1.72-.59 3.62 0 2 .49 3.89.49 1.88 1.65 3.35 1.17 1.46 3.07 2.34 1.91.89 4.7.89t4.7-.89q1.9-.88 3.06-2.34 1.17-1.47 1.66-3.35.48-1.89.48-3.89 0-1.9-.6-3.62-.61-1.72-1.81-3.05-1.21-1.32-3.07-2.11-1.86-.79-4.42-.79Zm11.35 24.27q6.13 2 9.06 6.11 2.93 4.12 2.93 10.07 0 4.47-1.7 8.09-1.69 3.63-4.76 6.19-3.07 2.55-7.37 3.95-4.3 1.39-9.51 1.39t-9.51-1.39q-4.3-1.4-7.37-3.95-3.07-2.56-4.77-6.19-1.69-3.62-1.69-8.09 0-5.95 2.93-10.07 2.93-4.11 9.06-6.11-4.88-2.05-7.32-5.81-2.44-3.77-2.44-9.07 0-3.81 1.56-7.12 1.55-3.3 4.34-5.74 2.79-2.44 6.68-3.81 3.88-1.37 8.53-1.37 4.65 0 8.53 1.37 3.88 1.37 6.67 3.81t4.35 5.74q1.56 3.31 1.56 7.12 0 5.3-2.44 9.07-2.44 3.76-7.32 5.81Zm67.23 1.44q0 8.79-1.88 15.28-1.88 6.48-5.21 10.71-3.32 4.24-7.86 6.3-4.53 2.07-9.78 2.07-5.26 0-9.75-2.07-4.48-2.06-7.78-6.3-3.31-4.23-5.17-10.71-1.86-6.49-1.86-15.28 0-8.83 1.86-15.3 1.86-6.46 5.17-10.69 3.3-4.23 7.78-6.3 4.49-2.07 9.75-2.07 5.25 0 9.78 2.07 4.54 2.07 7.86 6.3 3.33 4.23 5.21 10.69 1.88 6.47 1.88 15.3Zm-11.85 0q0-7.3-1.07-12.09t-2.86-7.63q-1.79-2.83-4.12-3.97-2.32-1.14-4.83-1.14-2.47 0-4.77 1.14-2.3 1.14-4.07 3.97-1.77 2.84-2.81 7.63-1.05 4.79-1.05 12.09t1.05 12.09q1.04 4.79 2.81 7.63 1.77 2.83 4.07 3.97 2.3 1.14 4.77 1.14 2.51 0 4.83-1.14 2.33-1.14 4.12-3.97 1.79-2.84 2.86-7.63 1.07-4.79 1.07-12.09Zm65.79 0q0 8.79-1.88 15.28-1.88 6.48-5.21 10.71-3.32 4.24-7.86 6.3-4.53 2.07-9.78 2.07-5.26 0-9.75-2.07-4.48-2.06-7.78-6.3-3.31-4.23-5.17-10.71-1.86-6.49-1.86-15.28 0-8.83 1.86-15.3 1.86-6.46 5.17-10.69 3.3-4.23 7.78-6.3 4.49-2.07 9.75-2.07 5.25 0 9.78 2.07 4.54 2.07 7.86 6.3 3.33 4.23 5.21 10.69 1.88 6.47 1.88 15.3Zm-11.85 0q0-7.3-1.07-12.09t-2.86-7.63q-1.79-2.83-4.12-3.97-2.32-1.14-4.83-1.14-2.47 0-4.77 1.14-2.3 1.14-4.07 3.97-1.77 2.84-2.81 7.63-1.05 4.79-1.05 12.09t1.05 12.09q1.04 4.79 2.81 7.63 1.77 2.83 4.07 3.97 2.3 1.14 4.77 1.14 2.51 0 4.83-1.14 2.33-1.14 4.12-3.97 1.79-2.84 2.86-7.63 1.07-4.79 1.07-12.09Z"/></svg>